<svg width="300" height="79" viewBox="0 0 300 79" fill="none" xmlns="http://www.w3.org/2000/svg">
<g clip-path="url(#clip0_907_400)">
<path d="M28.1779 56.3115C28.0278 57.1581 28.1876 58.0413 28.3364 58.8743C28.7991 61.4662 29.4519 64.1279 30.5096 66.5481C30.9644 67.5885 31.517 68.7938 32.8167 68.3806C35.2604 67.6039 37.1752 65.0309 38.6291 63.0918C41.6097 59.1162 43.9199 54.5246 45.5352 49.8319C46.7236 46.3794 47.8617 42.7044 48.1462 39.047C48.1681 38.7661 48.5849 35.844 48.2033 37.0125C47.2976 39.7857 46.4522 42.5203 45.8097 45.3751C44.8461 49.6568 43.8651 54.0707 43.2347 58.4135C43.188 58.7356 42.6779 62.7519 43.3677 62.687C45.1439 62.5197 47.1277 59.7011 48.0673 58.4553C50.4628 55.2791 52.1995 51.4566 53.8348 47.8494C55.4034 44.3895 56.5723 40.7611 57.134 36.9997C57.264 36.1292 57.3722 35.2561 57.5096 34.3866C57.51 34.3843 57.6235 33.4626 57.5657 34.1017C57.0853 39.4128 56.7745 44.7506 56.0823 50.0396C55.6254 53.5315 55.1002 56.9955 54.8928 60.5146C54.8588 61.0902 54.5708 63.7039 55.5503 61.9953C57.045 59.388 57.7645 56.4154 58.5152 53.5375C59.277 50.617 59.9835 47.5829 61.3898 44.8915C62.7468 42.2942 64.4462 39.4977 67.5296 38.8988C72.046 38.0216 72.8462 43.3212 71.4184 46.5249C71.3461 46.6872 69.1318 49.9594 68.5394 48.7423C68.2578 48.1636 70.115 48.273 70.3293 48.2735C71.8349 48.2773 73.6006 49.0638 74.6037 50.2004C75.8252 51.5844 76.4719 56.0408 74.1052 56.7902C72.0048 57.4553 72.1083 51.4468 72.7107 50.565C74.7553 47.572 82.2079 48.1933 83.6356 51.4825C83.8447 51.9641 84.075 52.5996 84.0919 53.1374C84.1004 53.4056 83.9563 52.6085 83.9755 52.3408C84.0554 51.2232 84.8234 50.167 85.7816 49.624C87.1127 48.8697 90.5592 48.3108 91.616 49.851C91.7029 49.9777 91.4649 49.6795 91.5436 49.4127C91.7748 48.6292 93.4661 48.2041 94.1527 48.0696C95.1698 47.8703 95.4352 47.8578 96.155 48.3158C96.6501 48.6309 97.551 48.469 98.0821 48.4242C99.7786 48.2814 101.438 48.2247 103.14 48.2171C104.841 48.2095 106.4 48.3278 108.084 48.5591C108.877 48.6681 109.858 48.9217 110.657 48.7101C111.536 48.4774 112.291 47.6458 113.074 47.1988C114.208 46.552 115.382 45.94 116.689 45.7507C117.367 45.6525 118.283 45.4501 118.944 45.7143C119.432 45.9093 119.549 46.5759 120.053 46.7072C120.584 46.8453 121.414 46.5998 121.945 46.5498C123.784 46.3767 125.622 46.2036 127.46 46.0304C130.382 45.7553 133.041 45.4007 135.914 46.1247C137.522 46.5298 138.914 45.1035 140.36 44.4844C142.858 43.4153 145.403 42.7394 148.084 42.3284C151.686 41.7763 154.83 41.9004 158.437 42.3473C165.637 43.2391 171.799 41.3072 177.669 37.1717C181.715 34.3209 184.722 30.6696 186.821 26.1953C187.96 23.7654 189.553 20.4111 188.454 17.6766C187.656 15.6925 184.936 19.78 184.628 20.2937C183.312 22.4854 182.269 24.8884 181.217 27.2095C178.605 32.9718 176.371 38.832 175.052 45.0376C173.83 50.7881 173.199 56.69 173.066 62.5654C172.985 66.135 172.562 71.6359 174.621 74.9042C175.616 76.4831 177.225 75.3427 177.495 73.9503C178.245 70.0835 173.972 66.281 171.466 64.0619C163.988 57.4412 153.714 53.9153 144.337 51.0566C135.684 48.4187 126.822 46.7542 117.95 45.0625" stroke="white" stroke-width="1.5" stroke-linecap="round"/>
<path d="M104.167 30.4624C106.034 29.4544 105.836 29.4998 108.473 28.5524C113.359 26.797 120.402 24.6012 125.05 23.187C140.387 18.5203 155.862 14.3705 171.245 9.87077C180.812 7.07209 190.347 4.541 200.081 2.44307" stroke="white" stroke-width="1.5" stroke-linecap="round"/>
</g>
<defs>
<clipPath id="clip0_907_400">
<rect width="300" height="79" fill="white"/>
</clipPath>
</defs>
</svg>
