<svg width="47" height="16" viewBox="0 0 47 16" fill="none" xmlns="http://www.w3.org/2000/svg">
<path d="M46.3333 8C46.3333 5.05448 43.9455 2.66667 41 2.66667C38.0545 2.66667 35.6667 5.05448 35.6667 8C35.6667 10.9455 38.0545 13.3333 41 13.3333C43.9455 13.3333 46.3333 10.9455 46.3333 8ZM0.292893 7.29289C-0.0976311 7.68342 -0.0976311 8.31658 0.292893 8.70711L6.65685 15.0711C7.04738 15.4616 7.68054 15.4616 8.07107 15.0711C8.46159 14.6805 8.46159 14.0474 8.07107 13.6569L2.41421 8L8.07107 2.34315C8.46159 1.95262 8.46159 1.31946 8.07107 0.928932C7.68054 0.538408 7.04738 0.538408 6.65685 0.928932L0.292893 7.29289ZM41 7L1 7V9L41 9V7Z" fill="white"/>
</svg>
