<svg width="121" height="121" viewBox="0 0 121 121" fill="none" xmlns="http://www.w3.org/2000/svg">
<mask id="mask0_1555_1361" style="mask-type:alpha" maskUnits="userSpaceOnUse" x="0" y="0" width="121" height="121">
<rect width="120.494" height="120.494" rx="33.8889" fill="white"/>
</mask>
<g mask="url(#mask0_1555_1361)">
<path d="M90 57.2308C90.9231 58.6154 91.8462 60 92.3077 62.3077H77.5385C77.5385 61.8462 77.5385 60.9231 78 60C78.4615 59.0769 78.4615 58.6154 79.3846 57.6923C79.8462 56.7692 80.7692 56.3077 81.6923 55.8462C82.6154 55.3846 84 54.9231 85.3846 54.9231C87.2308 55.3846 89.0769 55.8462 90 57.2308ZM47.5385 54C48.4615 53.0769 49.3846 51.6923 49.3846 49.8462C49.3846 48.9231 49.3846 48 48.9231 47.0769C48.4615 46.6154 48 45.6923 47.5385 45.6923C47.0769 45.2308 46.1538 45.2308 45.2308 44.7692H33.2308V55.3846H43.3846C44.7692 55.3846 46.1538 54.9231 47.5385 54ZM43.8462 61.8462H33.2308V74.3077H43.8462C44.7692 74.3077 45.6923 74.3077 46.6154 73.8462C47.5385 73.8462 48.4615 73.3846 48.9231 72.9231C49.3846 72.4615 50.3077 72 50.7692 71.0769C51.2308 70.1538 51.2308 69.2308 51.2308 68.3077C51.2308 66 50.7692 64.1538 49.3846 63.2308C48 62.3077 46.1538 61.8462 43.8462 61.8462ZM120 22.6154V97.3846C120 109.846 109.846 120 97.3846 120H22.6154C10.1538 120 0 109.846 0 97.3846V22.6154C0 10.1538 10.1538 0 22.6154 0H97.3846C109.846 0 120 10.1538 120 22.6154ZM75.6923 44.3077H94.1538V39.6923H75.6923V44.3077ZM60.9231 69.2308C60.9231 66.4615 60.4615 64.1538 59.0769 61.8462C57.6923 60 55.8462 58.6154 53.0769 57.6923C54.9231 56.7692 56.7692 55.3846 57.6923 54C58.6154 52.6154 59.0769 50.7692 59.0769 48.4615C59.0769 46.1538 58.6154 44.7692 58.1538 42.9231C57.2308 41.5385 56.3077 40.1538 55.3846 39.6923C54 38.7692 52.6154 38.3077 50.7692 37.8462C48.4615 36.9231 46.6154 36.9231 44.3077 36.9231H23.0769V82.1538H45.2308C47.0769 82.1538 49.3846 81.6923 51.2308 81.2308C53.0769 80.7692 54.9231 79.8462 56.3077 78.9231C57.6923 78 59.0769 76.6154 60 74.7692C60.4615 73.3846 60.9231 71.5385 60.9231 69.2308ZM77.5385 67.8462H101.077C101.077 65.0769 101.077 62.7692 100.615 60.4615C100.154 58.1538 99.2308 55.8462 97.8462 54.4615C96.4615 52.6154 94.6154 51.2308 92.7692 50.3077C90.4615 49.3846 88.1538 48.4615 85.3846 48.4615C83.0769 48.4615 80.7692 48.9231 78.4615 49.8462C76.6154 50.7692 74.7692 52.1538 72.9231 53.5385C71.5385 54.9231 70.1538 56.7692 69.6923 59.0769C68.7692 61.3846 68.3077 63.6923 68.3077 66C68.3077 68.3077 68.7692 71.0769 69.6923 72.9231C70.6154 75.2308 71.5385 77.0769 72.9231 78.4615C74.3077 79.8462 76.1538 81.2308 78 82.1538C80.3077 83.0769 82.6154 83.5385 84.9231 83.5385C88.6154 83.5385 91.8462 82.6154 94.6154 80.7692C97.3846 78.9231 99.2308 76.1538 100.615 72.4615H92.7692C92.3077 73.3846 91.8462 74.3077 90.4615 75.2308C89.0769 76.1538 87.6923 76.6154 85.8462 76.6154C83.5385 76.6154 81.2308 76.1538 79.8462 74.7692C78.4615 72.9231 77.5385 70.6154 77.5385 67.8462Z" fill="white"/>
</g>
</svg>
