<svg width="120" height="120" viewBox="0 0 120 120" fill="none" xmlns="http://www.w3.org/2000/svg">
<path fill-rule="evenodd" clip-rule="evenodd" d="M33 0C14.7746 0 0 14.7746 0 33V87C0 105.225 14.7746 120 33 120H87C105.225 120 120 105.225 120 87V33C120 14.7746 105.225 0 87 0H33ZM94 60C94 78.7777 78.7777 94 60 94C41.2223 94 26 78.7777 26 60C26 41.2223 41.2223 26 60 26C78.7777 26 94 41.2223 94 60ZM59.9943 90.9573C42.9276 90.9573 29.0391 77.0687 29.0391 60.0021C29.0391 42.9355 42.9276 29.0469 59.9943 29.0469C77.0609 29.0469 90.9495 42.9355 90.9495 60.0021C90.9495 77.0687 77.0609 90.9573 59.9943 90.9573ZM59.9943 31.0486C44.0214 31.0486 31.0408 44.0292 31.0408 60.0021C31.0408 75.975 44.0214 88.9556 59.9943 88.9556C75.9672 88.9556 88.9477 75.975 88.9477 60.0021C88.9477 44.0292 75.9672 31.0486 59.9943 31.0486ZM52.0078 46.031C48.4996 46.031 45.5072 49.0233 45.5072 54.5127L48.9949 55.008C49.4901 51.5204 50.4807 50.0139 52.4825 50.0139C54.4843 50.0139 55.4955 50.5092 58.9831 52.5109C62.4707 54.5127 63.4613 55.008 66.9695 55.008C70.4778 55.008 73.9654 52.5109 73.4701 46.5263H69.9825C69.9825 49.5186 68.9919 51.0251 66.9902 51.0251C64.9884 51.0251 63.9772 50.5298 59.9943 48.528C59.5199 48.2896 59.095 48.0726 58.7086 47.8752C55.8507 46.4153 55.0983 46.031 52.0078 46.031ZM61.5008 77.9768V56.5145L57.4972 55.008V77.9768H61.5008Z" fill="white"/>
</svg>
