<svg width="122" height="121" viewBox="0 0 122 121" fill="none" xmlns="http://www.w3.org/2000/svg">
<path fill-rule="evenodd" clip-rule="evenodd" d="M34.4201 0.503906C15.7038 0.503906 0.53125 15.6765 0.53125 34.3928V87.1088C0.53125 105.825 15.7038 120.998 34.4201 120.998H87.1362C105.853 120.998 121.025 105.825 121.025 87.1089V34.3928C121.025 15.6765 105.853 0.503906 87.1362 0.503906H34.4201ZM73.7024 33.6406C73.7015 36.7657 74.8363 39.7847 76.8955 42.1354C80.9922 46.8648 86.6555 46.5937 86.6555 46.5937V55.9019C82.0085 55.9098 77.4768 54.4555 73.7024 51.7448V70.6925C73.7024 80.1814 66.0209 87.8628 56.5621 87.8628C47.736 87.8628 39.4219 80.7236 39.4219 70.6925C39.4219 60.3903 48.5192 52.3172 58.9118 53.7028V63.2219C53.7606 61.6253 48.7601 65.5112 48.7601 70.6925C48.7601 75.0303 52.3147 78.5246 56.5922 78.5246C58.6149 78.5243 60.5585 77.7391 62.0138 76.3344C63.469 74.9297 64.3224 73.0151 64.3942 70.9937V33.6406H73.7024Z" fill="white"/>
</svg>
