<svg width="120" height="120" viewBox="0 0 120 120" fill="none" xmlns="http://www.w3.org/2000/svg">
<path fill-rule="evenodd" clip-rule="evenodd" d="M33 0C14.7746 0 0 14.7746 0 33V87C0 105.225 14.7746 120 33 120H87C105.225 120 120 105.225 120 87V33C120 14.7746 105.225 0 87 0H33ZM53.1763 86.8218C53.1763 87.349 52.7518 87.7764 52.2282 87.7764C51.7046 87.7764 51.2802 87.349 51.2802 86.8218C51.2802 86.2945 51.7046 85.8671 52.2282 85.8671C52.7518 85.8671 53.1763 86.2945 53.1763 86.8218ZM83.169 91.1174C83.2613 90.9191 83.3727 90.936 83.5169 91.0381C83.6188 91.1103 84.199 91.6635 83.9291 92.1318C82.0173 95.3948 78.9894 94.448 78.0802 93.7067L78.0406 93.734C78.0068 93.7577 77.971 93.7832 77.9333 93.8102C77.5322 94.0971 76.9092 94.5425 76.1097 94.4835C74.1826 94.3411 73.4925 91.5688 73.4925 91.5688C73.5062 91.5798 72.9185 91.773 72.6007 91.7696C72.5966 92.5825 71.8984 94.5246 70.0144 94.4998C67.9003 94.4721 67.4705 91.3013 67.4705 91.3013C67.4705 91.3013 67.26 91.5954 66.46 91.8883L66.4608 91.8762C66.4094 92.2901 66.0171 94.413 63.9369 94.4509C61.9337 94.4874 61.393 91.2523 61.393 91.2523C61.393 91.2523 61.0455 91.6158 60.372 91.7419L60.3736 91.718C60.3266 92.1114 59.9323 94.4598 57.8109 94.4508C56.0983 94.4436 55.513 92.4581 55.5586 92.1825C55.5685 92.1225 55.5581 92.1506 55.5259 92.2383C55.3691 92.664 54.6956 94.4932 53.3162 94.4587C52.6297 94.4383 52.118 93.9381 51.7968 93.2709C51.3668 93.7661 50.7427 94.4587 50.0424 94.4587C48.7855 94.4587 48.2314 93.4004 48.3253 90.3777C48.3333 90.0192 48.3076 89.8782 47.9535 89.8247C47.854 89.808 47.7534 89.7842 47.6509 89.7601L47.6508 89.7601C47.5344 89.7327 47.4156 89.7047 47.2933 89.6857C47.286 89.7103 47.2732 89.7761 47.2541 89.8749C47.0803 90.772 46.3801 94.3863 44.4412 94.4623C43.7552 94.4893 43.3646 93.9225 43.0492 93.465L43 93.3936C42.503 94.0556 41.8467 94.4835 40.9121 94.4835C39.3288 94.4835 38.25 93.1949 38.25 91.6055C38.25 90.0161 39.3287 88.7276 40.912 88.7276C41.1469 88.7276 41.2401 88.7561 41.4151 88.8097L41.4461 88.8192C41.4709 88.8268 41.4975 88.8348 41.5263 88.8432C41.0004 84.0226 42.2424 83.2692 43.329 83.2692C44.3722 83.2692 46.1544 85.7065 43.6468 91.8889C44.2036 93.7328 45.4037 93.6286 45.9805 89.8326C46.0221 89.5591 46.0095 89.2518 45.9977 88.9625C45.9761 88.4354 45.957 87.9682 46.2721 87.8744C46.8584 87.7 47.1004 87.9839 47.316 88.2369C47.4287 88.3691 47.5341 88.4928 47.6777 88.5384C47.9508 88.625 48.1536 88.653 48.3688 88.6827H48.3688C48.5023 88.7011 48.6406 88.7201 48.8032 88.7543C49.529 88.897 49.8122 89.2896 49.7238 90.1637L49.7082 90.3247C49.6016 91.4197 49.4587 92.8891 49.9983 93.0759C50.4066 93.2184 51.1525 92.3658 51.2832 91.8993C51.4141 91.4327 51.4414 91.2731 51.453 90.9309C51.4707 90.1994 51.4929 89.6633 51.6168 89.1103C51.6699 88.8961 51.7302 88.7544 51.9708 88.7447C52.0111 88.7437 52.0582 88.7404 52.109 88.7369C52.3077 88.723 52.5632 88.7051 52.69 88.8046C52.8875 88.9538 52.8784 89.1051 52.8566 89.4701L52.8515 89.5572C52.6045 95.6735 54.5055 92.6202 55.0724 90.1753C54.8706 87.4109 55.0091 83.3199 56.7301 83.2513C57.625 83.2156 58.0207 83.9373 58.0642 84.4761C58.1873 85.9977 57.4977 88.5182 56.5909 90.2133C56.0726 93.672 58.8571 94.3557 59.3023 91.5951C58.5739 91.2463 57.7865 89.835 58.4272 89.1472C58.7866 88.7613 60.2831 89.3158 60.3076 90.5252C60.8688 90.3742 61.0582 90.0948 61.1209 90.0024C61.1402 89.974 61.1474 89.9633 61.1498 89.9796C60.9481 87.215 61.1352 83.3199 62.8562 83.2513C63.7511 83.2156 64.1467 83.9373 64.1903 84.4761C64.3134 85.9977 63.6238 88.5182 62.717 90.2133C62.1987 93.672 64.9832 94.3557 65.4284 91.5951C64.8891 91.4904 63.7504 89.9892 64.4074 89.1473C64.7584 88.6974 66.2494 89.6331 66.4162 90.5652C66.9527 90.4125 67.1365 90.1422 67.1982 90.0515C67.2176 90.023 67.2249 90.0122 67.2273 90.0285C67.0256 87.264 67.2127 83.3688 68.9337 83.3003C69.8286 83.2645 70.2242 83.9863 70.2678 84.525C70.3909 86.0466 69.7012 88.5671 68.7944 90.2622C68.2761 93.7209 71.0607 94.4046 71.5059 91.6439C70.7647 91.5196 69.7113 89.9346 70.5591 89.1239C70.8979 88.7998 72.1922 89.6408 72.4951 90.6003C72.8363 90.5871 73.0731 90.4885 73.1805 90.4439C73.2056 90.4334 73.2237 90.4259 73.2343 90.4231C72.5622 87.1777 73.0625 83.2837 74.9139 83.2512C75.9145 83.2336 76.8929 83.7958 76.4634 86.8834C76.0887 89.5769 74.825 90.8411 74.6137 91.0525L74.6135 91.0527L74.6134 91.0528C74.5938 91.0724 74.5833 91.0829 74.5836 91.0845C74.6694 91.4375 75.4254 94.3911 77.3292 92.8326C77.2307 92.6079 77.132 92.3786 77.0768 92.1004C76.7613 90.481 77.3811 88.6517 79.0658 88.3561C80.0309 88.1867 80.9402 88.6597 81.0838 89.7262C81.3205 91.4712 79.755 92.735 79.1598 93.0091C78.8933 92.8566 81.5766 94.5891 83.169 91.1174ZM39.3196 91.6202C39.3196 92.5473 39.9119 93.4071 40.8357 93.4071C41.6362 93.4071 42.2455 92.8592 42.4314 92.0835C42.407 92.0268 42.3826 91.9709 42.3584 91.9154C42.2536 91.6751 42.1519 91.442 42.0638 91.1768C41.9828 90.9329 41.8164 90.3957 41.7577 90.1628C41.434 89.8794 41.2027 89.8333 40.7871 89.8333C39.8633 89.8333 39.3196 90.6931 39.3196 91.6202ZM43.0505 90.147C43.0592 90.1528 43.0666 90.1577 43.0867 90.1901C44.2138 87.7044 43.7463 84.5453 43.3064 84.5453C42.6574 84.5453 42.4372 86.1041 42.4799 87.4339C42.5177 88.6094 42.844 89.6444 43.0134 90.1081C43.0338 90.1358 43.0427 90.1417 43.0505 90.147ZM56.0934 88.8045C55.9892 88.0153 55.9837 84.4974 56.8227 84.5942C57.2859 84.7831 56.529 88.1028 56.0934 88.8045ZM62.2195 88.8045C62.1153 88.0153 62.1099 84.4974 62.9488 84.5942C63.412 84.7831 62.6551 88.1028 62.2195 88.8045ZM68.297 88.8535C68.1927 88.0643 68.1874 84.5463 69.0262 84.6432C69.4894 84.8321 68.7325 88.1518 68.297 88.8535ZM75.0065 84.3883C75.7735 84.3083 75.7419 87.6802 74.2023 89.8089C74.0038 89.0395 73.6993 84.6526 75.0065 84.3883ZM79.2769 89.4782C78.6207 89.5684 77.9841 90.3912 78.2305 91.6439C78.2853 91.923 78.4226 92.1797 78.4204 92.1712C79.8892 91.1793 80.014 90.3976 79.905 89.8706C79.8387 89.5909 79.5063 89.4413 79.2769 89.4782ZM75.9323 38.0988C72.5327 41.5565 68.7131 44.0994 64.2552 45.9442C64.9759 47.3858 65.6491 48.8376 66.2712 50.3098C70.8388 49.6541 75.595 50.0214 80.4995 51.1417C80.4916 52.3068 80.3866 53.4488 80.192 54.5601C75.7357 53.5005 71.5335 53.1241 67.57 53.5704C69.2766 58.1715 70.5433 62.9536 71.4116 68.0327C70.4165 68.7007 69.3597 69.2838 68.2515 69.7717C67.3846 64.2574 66.0441 59.1152 64.1634 54.1756C63.5854 54.3184 63.0108 54.4816 62.4431 54.6618C56.9053 56.4399 51.691 60.2098 46.8582 66.7342C45.9789 65.9989 45.1621 65.1914 44.4171 64.3206C49.5091 57.5766 55.169 53.4258 61.4061 51.425C61.8889 51.2686 62.3785 51.1258 62.868 50.9966C62.2969 49.6873 61.6881 48.3947 61.0423 47.1206C55.0823 49.0407 48.048 49.9513 39.5122 50.2872C39.552 49.1207 39.6893 47.979 39.9162 46.8698C47.7533 46.534 54.1 45.6971 59.4104 44.0708C57.19 40.1336 54.5596 36.2584 51.4833 32.3474C52.5623 31.8539 53.6916 31.4513 54.8613 31.1494C57.8731 35.0591 60.4609 38.9559 62.6606 42.9216C66.9169 41.203 70.457 38.8398 73.5805 35.6432C74.4303 36.3953 75.2172 37.2168 75.9323 38.0988ZM85.5 50.9813C85.5006 49.6967 85.4038 48.4201 85.213 47.1618C83.892 38.4108 78.1236 31.1178 70.2839 27.6587C68.9121 27.0534 67.4769 26.5655 65.991 26.2077C64.0492 25.7395 62.0453 25.4986 60.0186 25.5C60.0124 25.5 60.0062 25.5 60 25.5C59.8923 25.5 59.7847 25.5007 59.6773 25.502C56.9126 25.536 54.2559 26.0077 51.7699 26.8573C50.5522 27.2723 49.376 27.7768 48.249 28.363L48.2488 28.3628C44.7101 30.2019 41.6514 32.8446 39.3181 36.079C39.1797 36.2709 39.044 36.4645 38.9112 36.6598C36.9565 39.5289 35.572 42.8174 34.9207 46.3626C34.8821 46.5704 34.8462 46.7789 34.8128 46.988H34.8138C34.6382 48.099 34.5344 49.2338 34.5072 50.3876L34.5068 50.388L34.5064 50.4221C34.5021 50.6142 34.5 50.8069 34.5 51C34.5 51.7504 34.5324 52.4932 34.5959 53.2272C35.1126 59.2005 37.688 64.5847 41.609 68.6664L41.6097 68.6649C42.4254 69.5138 43.2992 70.3064 44.2248 71.0362H44.2235C48.7108 74.5798 54.2626 76.5049 59.9799 76.5C59.9866 76.5 59.9933 76.5 60 76.5C60.1577 76.5 60.3151 76.4986 60.4721 76.4957C61.6297 76.4747 62.7684 76.3765 63.8834 76.2062C65.1827 76.0077 66.4497 75.7111 67.6767 75.3242C70.3073 74.4948 72.7537 73.2504 74.9393 71.6679C76.3211 70.6681 77.5999 69.5318 78.7562 68.2761C82.9429 63.733 85.5 57.6651 85.5 51C85.5 50.9938 85.5 50.9875 85.5 50.9813Z" fill="white"/>
</svg>
