<svg width="121" height="121" viewBox="0 0 121 121" fill="none" xmlns="http://www.w3.org/2000/svg">
<path fill-rule="evenodd" clip-rule="evenodd" d="M33.8889 0C15.1726 0 0 15.1726 0 33.8889V86.6049C0 105.321 15.1726 120.494 33.8889 120.494H86.6049C105.321 120.494 120.494 105.321 120.494 86.605V33.8889C120.494 15.1726 105.321 0 86.605 0H33.8889ZM26.9306 55.5596L82.9753 33.7444C87.1638 32.0471 88.8068 33.999 87.8433 38.429L78.5639 82.7812C77.8569 86.3802 76.069 87.6474 72.7831 85.6838L58.6356 74.9904L50.3751 82.88C49.3605 83.7663 47.7698 83.7579 46.9011 81.9749L47.839 70.4267L77.6965 43.1388C79.3687 41.6411 77.4255 41.2781 75.5273 42.6396L40.7634 64.3262L26.3855 59.7141C23.9125 58.6099 24.6753 56.5755 26.9306 55.5596Z" fill="white"/>
</svg>
