<svg width="122" height="121" viewBox="0 0 122 121" fill="none" xmlns="http://www.w3.org/2000/svg">
<path d="M80.2837 60.7547C80.2837 64.5678 79.153 68.2952 77.0346 71.4656C74.9162 74.636 71.9053 77.107 68.3825 78.5662C64.8597 80.0254 60.9833 80.4072 57.2436 79.6633C53.5038 78.9194 50.0686 77.0833 47.3724 74.387C44.6762 71.6908 42.84 68.2556 42.0962 64.5159C41.3523 60.7761 41.7341 56.8997 43.1932 53.377C44.6524 49.8542 47.1235 46.8432 50.2939 44.7248C53.4643 42.6064 57.1917 41.4757 61.0047 41.4757C66.113 41.4916 71.0074 43.5279 74.6195 47.14C78.2316 50.752 80.2679 55.6465 80.2837 60.7547ZM121.252 34.2461V87.2634C121.252 96.2113 117.697 104.793 111.37 111.12C105.043 117.447 96.4613 121.002 87.5134 121.002H34.4961C25.5481 121.002 16.9667 117.447 10.6395 111.12C4.31237 104.793 0.757813 96.2113 0.757812 87.2634V34.2461C0.757813 25.2981 4.31237 16.7167 10.6395 10.3895C16.9667 4.06237 25.5481 0.507813 34.4961 0.507812H87.5134C96.4613 0.507813 105.043 4.06237 111.37 10.3895C117.697 16.7167 121.252 25.2981 121.252 34.2461ZM89.9232 60.7547C89.9232 55.0352 88.2272 49.4441 85.0496 44.6885C81.872 39.9328 77.3555 36.2263 72.0714 34.0375C66.7872 31.8487 60.9726 31.276 55.363 32.3919C49.7534 33.5077 44.6006 36.2619 40.5562 40.3062C36.5119 44.3506 33.7577 49.5034 32.6419 55.113C31.526 60.7226 32.0987 66.5372 34.2875 71.8214C36.4763 77.1055 40.1828 81.622 44.9385 84.7996C49.6941 87.9772 55.2852 89.6732 61.0047 89.6732C68.6744 89.6732 76.0299 86.6265 81.4532 81.2032C86.8765 75.7799 89.9232 68.4244 89.9232 60.7547ZM99.5628 29.4263C99.5628 27.9964 99.1387 26.5987 98.3443 25.4098C97.5499 24.2209 96.4208 23.2942 95.0998 22.747C93.7787 22.1998 92.3251 22.0567 90.9227 22.3356C89.5203 22.6146 88.2321 23.3031 87.221 24.3142C86.2099 25.3253 85.5214 26.6135 85.2424 28.0159C84.9634 29.4183 85.1066 30.8719 85.6538 32.193C86.201 33.514 87.1276 34.6432 88.3166 35.4375C89.5055 36.232 90.9032 36.656 92.3331 36.656C94.2505 36.656 96.0894 35.8943 97.4452 34.5385C98.8011 33.1826 99.5628 31.3437 99.5628 29.4263Z" fill="white"/>
</svg>
