<svg width="160" height="160" viewBox="0 0 160 160" fill="none" xmlns="http://www.w3.org/2000/svg">
<path fill-rule="evenodd" clip-rule="evenodd" d="M45 0C20.1472 0 0 20.1472 0 45V115C0 139.853 20.1472 160 45 160H115C139.853 160 160 139.853 160 115V45C160 20.1472 139.853 0 115 0H45ZM97.1601 44C97.159 48.1497 98.6658 52.1585 101.4 55.28C106.84 61.56 114.36 61.2 114.36 61.2V73.56C108.19 73.5706 102.172 71.6394 97.1601 68.04V93.2C97.1601 105.8 86.9601 116 74.4001 116C62.6801 116 51.6401 106.52 51.6401 93.2C51.6401 79.52 63.7201 68.8 77.5201 70.64V83.28C70.6801 81.16 64.0401 86.32 64.0401 93.2C64.0401 98.96 68.7601 103.6 74.4401 103.6C77.1259 103.6 79.7068 102.557 81.6392 100.692C83.5716 98.8265 84.7048 96.2841 84.8001 93.6V44H97.1601Z" fill="white"/>
</svg>
