<svg width="160" height="160" viewBox="0 0 160 160" fill="none" xmlns="http://www.w3.org/2000/svg">
<path fill-rule="evenodd" clip-rule="evenodd" d="M45 0C20.1472 0 0 20.1472 0 45V115C0 139.853 20.1472 160 45 160H115C139.853 160 160 139.853 160 115V45C160 20.1472 139.853 0 115 0H45ZM70.9017 115.762C70.9017 116.465 70.3358 117.035 69.6376 117.035C68.9395 117.035 68.3736 116.465 68.3736 115.762C68.3736 115.059 68.9395 114.49 69.6376 114.49C70.3358 114.49 70.9017 115.059 70.9017 115.762ZM110.892 121.49C111.015 121.225 111.164 121.248 111.356 121.384C111.492 121.48 112.265 122.218 111.905 122.842C109.356 127.193 105.319 125.931 104.107 124.942C104.047 124.983 103.982 125.03 103.911 125.08C103.376 125.463 102.546 126.057 101.48 125.978C98.9101 125.788 97.99 122.092 97.99 122.092C98.0083 122.106 97.2246 122.364 96.8009 122.359C96.7955 123.443 95.8645 126.033 93.3525 126C90.5337 125.963 89.9606 121.735 89.9606 121.735C89.9606 121.735 89.68 122.127 88.6134 122.518L88.6144 122.502C88.5458 123.054 88.0228 125.884 85.2492 125.935C82.5783 125.983 81.8573 121.67 81.8573 121.67C81.8573 121.67 81.3939 122.154 80.496 122.323L80.4981 122.291C80.4354 122.815 79.9097 125.946 77.0812 125.934C74.7977 125.925 74.0173 123.277 74.0781 122.91C74.0913 122.83 74.0775 122.867 74.0345 122.984C73.8255 123.552 72.9274 125.991 71.0883 125.945C70.1729 125.918 69.4906 125.251 69.0624 124.361C68.4891 125.022 67.6569 125.945 66.7232 125.945C65.0474 125.945 64.3086 124.534 64.4337 120.504C64.4444 120.026 64.4101 119.838 63.9381 119.766C63.8055 119.744 63.6714 119.712 63.5348 119.68L63.5346 119.68L63.5345 119.68L63.5342 119.68C63.3791 119.644 63.2207 119.606 63.0577 119.581C63.048 119.614 63.0311 119.701 63.0057 119.832L63.0055 119.833L63.0055 119.833C62.7737 121.029 61.8401 125.848 59.2549 125.95C58.3403 125.986 57.8194 125.23 57.3989 124.62L57.3333 124.525C56.6706 125.407 55.7956 125.978 54.5494 125.978C52.4384 125.978 51 124.26 51 122.141C51 120.021 52.4383 118.304 54.5493 118.304C54.8626 118.304 54.9868 118.342 55.2201 118.413C55.2648 118.427 55.3136 118.442 55.3684 118.458C54.6671 112.03 56.3232 111.026 57.7719 111.026C59.1629 111.026 61.5392 114.275 58.1957 122.518C58.9381 124.977 60.5383 124.838 61.3073 119.777C61.3628 119.412 61.346 119.002 61.3302 118.617C61.3015 117.914 61.276 117.291 61.6962 117.166C62.4778 116.933 62.8005 117.312 63.088 117.649C63.2382 117.825 63.3788 117.99 63.5703 118.051C63.9344 118.167 64.2049 118.204 64.4918 118.244L64.4921 118.244C64.67 118.268 64.8542 118.294 65.071 118.339C66.0386 118.529 66.4163 119.053 66.2984 120.218L66.2776 120.433C66.1355 121.893 65.9449 123.852 66.6644 124.101C67.2088 124.291 68.2033 123.154 68.3776 122.532C68.5521 121.91 68.5885 121.697 68.604 121.241C68.6276 120.266 68.6572 119.551 68.8223 118.814C68.8932 118.528 68.9737 118.339 69.2944 118.326C69.3181 118.326 69.3436 118.325 69.3706 118.323C69.4046 118.321 69.4409 118.318 69.4787 118.316C69.7437 118.297 70.0843 118.273 70.2533 118.406C70.5167 118.605 70.5046 118.807 70.4754 119.294L70.4686 119.41C70.1393 127.565 72.674 123.494 73.4299 120.234C73.1609 116.548 73.3455 111.093 75.6402 111.002C76.8334 110.954 77.3609 111.916 77.4189 112.635C77.5831 114.664 76.6636 118.024 75.4545 120.284C74.7634 124.896 78.4761 125.808 79.0697 122.127C78.0985 121.662 77.0486 119.78 77.9029 118.863C78.3822 118.348 80.3774 119.088 80.4102 120.7C81.1583 120.499 81.411 120.126 81.4945 120.003C81.5202 119.965 81.5299 119.951 81.5331 119.973C81.2641 116.287 81.5135 111.093 83.8083 111.002C85.0015 110.954 85.5289 111.916 85.5871 112.635C85.7511 114.664 84.8317 118.024 83.6227 120.284C82.9316 124.896 86.6442 125.808 87.2379 122.127C86.5188 121.987 85.0006 119.986 85.8766 118.863C86.3446 118.263 88.3326 119.511 88.555 120.754C89.2703 120.55 89.5154 120.19 89.5976 120.069C89.6235 120.031 89.6332 120.016 89.6364 120.038C89.3674 116.352 89.6169 111.158 91.9117 111.067C93.1047 111.019 93.6323 111.982 93.6904 112.7C93.8545 114.729 92.935 118.089 91.7259 120.35C91.0348 124.961 94.7476 125.873 95.3412 122.192C94.353 122.026 92.9484 119.913 94.0788 118.832C94.5305 118.4 96.2562 119.521 96.6601 120.8C97.115 120.783 97.4307 120.651 97.574 120.592L97.574 120.592C97.6075 120.578 97.6316 120.568 97.6458 120.564C96.7496 116.237 97.4167 111.045 99.8853 111.002C101.219 110.978 102.524 111.728 101.951 115.845C101.452 119.436 99.7666 121.122 99.4849 121.403C99.4707 121.418 99.46 121.428 99.4533 121.435C99.4475 121.441 99.4446 121.445 99.4448 121.446C99.5592 121.917 100.567 125.855 103.106 123.777C102.974 123.477 102.843 123.171 102.769 122.801C102.348 120.641 103.175 118.202 105.421 117.808C106.708 117.582 107.92 118.213 108.112 119.635C108.427 121.962 106.34 123.647 105.546 124.012C105.191 123.809 108.769 126.119 110.892 121.49ZM52.4261 122.16C52.4261 123.396 53.2159 124.543 54.4476 124.543C55.5149 124.543 56.3274 123.812 56.5752 122.778C56.5429 122.703 56.5106 122.629 56.4786 122.555L56.4782 122.555L56.4779 122.554C56.3381 122.234 56.2025 121.923 56.085 121.569C55.9771 121.244 55.7553 120.528 55.677 120.217C55.2453 119.839 54.937 119.778 54.3828 119.778C53.1511 119.778 52.4261 120.924 52.4261 122.16ZM57.4007 120.196C57.4122 120.204 57.4221 120.21 57.449 120.253C58.9517 116.939 58.3283 112.727 57.7419 112.727C56.8765 112.727 56.5829 114.805 56.6399 116.579C56.6903 118.146 57.1254 119.526 57.3511 120.144C57.3784 120.181 57.3902 120.189 57.4007 120.196ZM74.7912 118.406C74.6523 117.354 74.645 112.663 75.7636 112.792C76.3812 113.044 75.372 117.47 74.7912 118.406ZM82.9593 118.406C82.8204 117.354 82.8131 112.663 83.9317 112.792C84.5494 113.044 83.5401 117.47 82.9593 118.406ZM91.0627 118.471C90.9236 117.419 90.9165 112.728 92.035 112.858C92.6526 113.109 91.6434 117.536 91.0627 118.471ZM100.009 112.518C101.031 112.411 100.989 116.907 98.9364 119.745C98.6717 118.719 98.2658 112.87 100.009 112.518ZM105.703 119.304C104.828 119.425 103.979 120.522 104.307 122.192C104.38 122.564 104.563 122.906 104.561 122.895C106.519 121.572 106.685 120.53 106.54 119.827C106.452 119.455 106.008 119.255 105.703 119.304ZM102.401 49.5812C97.5803 54.8183 92.1288 58.5876 85.6735 61.2589C86.6346 63.1811 87.5321 65.1168 88.3617 67.0797C94.9661 66.1317 101.867 66.7877 108.994 68.5888C108.963 70.1431 108.81 71.6674 108.544 73.1524C101.997 71.4338 95.8561 70.7782 90.0933 71.4272C92.5692 78.1023 94.3507 85.0632 95.509 92.5089C94.1629 93.3625 92.7417 94.1082 91.2575 94.734C90.1168 86.7327 88.2516 79.3268 85.5511 72.2341C84.7805 72.4245 84.0144 72.6421 83.2574 72.8824C75.4987 75.3737 68.216 80.7973 61.4995 90.3333C60.3206 89.3556 59.2203 88.2863 58.2096 87.1363C65.259 77.3297 73.1427 71.3679 81.8748 68.5667C82.5185 68.3581 83.1713 68.1677 83.824 67.9955C83.0626 66.2497 82.2508 64.5263 81.3898 62.8275C73.0578 65.5117 63.1512 66.7164 51.0134 67.1094C51.0602 65.5592 51.2286 64.0397 51.5094 62.5599C62.752 62.1628 71.7506 61.0467 79.2139 58.7611C75.9996 53.0617 72.1411 47.4596 67.5769 41.7882C69.0032 41.1109 70.4937 40.5467 72.0366 40.1071C76.531 45.7994 80.3472 51.4594 83.5475 57.2288C89.7483 54.7251 94.8091 51.1952 99.2509 46.3108C100.384 47.3171 101.437 48.4107 102.401 49.5812ZM114 67.9754C114.001 66.2619 113.872 64.5591 113.617 62.8806C111.855 51.2144 104.166 41.4918 93.7146 36.8794C91.884 36.0715 89.9687 35.4204 87.9857 34.9431C85.3974 34.3191 82.7263 33.9981 80.0248 34C80.0165 34 80.0083 34 80 34C79.8564 34 79.713 34.0009 79.5698 34.0027C75.8834 34.0479 72.341 34.677 69.0264 35.8098C67.4029 36.3631 65.8346 37.0358 64.332 37.8174L64.3318 37.8171C59.6134 40.2692 55.5352 43.7928 52.4241 48.1053C52.2395 48.3612 52.0587 48.6194 51.8815 48.8799C49.2754 52.7051 47.4295 57.0896 46.561 61.8162C46.5096 62.0935 46.4616 62.3717 46.417 62.6507H46.4184C46.1843 64.132 46.0459 65.6451 46.0096 67.1834L46.0091 67.184L46.0086 67.2292C46.0029 67.4854 46 67.7424 46 68C46 69.1827 46.0604 70.3514 46.1783 71.503C46.9714 79.2544 50.3677 86.2347 55.4787 91.5552L55.4796 91.5532C56.5671 92.6851 57.7323 93.7419 58.9664 94.7149H58.9646C64.9481 99.44 72.3512 102.007 79.9748 102C79.9832 102 79.9916 102 80 102C83.3449 102 86.577 101.517 89.6303 100.617C93.3685 99.5149 96.8388 97.7877 99.9201 95.5564C101.765 94.2213 103.472 92.7039 105.016 91.0266C110.594 84.9701 114 76.8829 114 68C114 67.9918 114 67.9836 114 67.9754Z" fill="white"/>
</svg>
