<svg width="160" height="160" viewBox="0 0 160 160" fill="none" xmlns="http://www.w3.org/2000/svg">
<path fill-rule="evenodd" clip-rule="evenodd" d="M45 0C20.1472 0 0 20.1472 0 45V115C0 139.853 20.1472 160 45 160H115C139.853 160 160 139.853 160 115V45C160 20.1472 139.853 0 115 0H45ZM35.7607 73.7747L110.181 44.807C115.742 42.5531 117.924 45.145 116.645 51.0275L104.323 109.921C103.384 114.7 101.01 116.383 96.6467 113.776L77.8608 99.5762L66.8919 110.053C65.5446 111.229 63.4325 111.218 62.279 108.851L63.5244 93.5163L103.171 57.2815C105.392 55.2928 102.811 54.8107 100.291 56.6185L54.1288 85.4156L35.0369 79.2912C31.753 77.8251 32.7659 75.1236 35.7607 73.7747Z" fill="white"/>
</svg>
