<svg width="160" height="160" viewBox="0 0 160 160" fill="none" xmlns="http://www.w3.org/2000/svg">
<path d="M105.6 80C105.6 85.0632 104.099 90.0127 101.286 94.2226C98.4727 98.4325 94.4745 101.714 89.7967 103.651C85.1189 105.589 79.9716 106.096 75.0057 105.108C70.0398 104.12 65.4783 101.682 61.8981 98.1019C58.3178 94.5217 55.8797 89.9602 54.8919 84.9943C53.9041 80.0284 54.4111 74.8811 56.3487 70.2033C58.2863 65.5255 61.5675 61.5273 65.7774 58.7144C69.9873 55.9014 74.9368 54.4 80 54.4C86.7831 54.4211 93.2823 57.125 98.0786 61.9214C102.875 66.7177 105.579 73.2169 105.6 80ZM160 44.8V115.2C160 127.082 155.28 138.477 146.878 146.878C138.477 155.28 127.082 160 115.2 160H44.8C32.9183 160 21.5232 155.28 13.1216 146.878C4.71999 138.477 0 127.082 0 115.2V44.8C0 32.9183 4.71999 21.5232 13.1216 13.1216C21.5232 4.71999 32.9183 0 44.8 0H115.2C127.082 0 138.477 4.71999 146.878 13.1216C155.28 21.5232 160 32.9183 160 44.8ZM118.4 80C118.4 72.4052 116.148 64.9809 111.928 58.6661C107.709 52.3513 101.712 47.4294 94.695 44.523C87.6784 41.6166 79.9574 40.8562 72.5085 42.3378C65.0597 43.8195 58.2174 47.4768 52.8471 52.8471C47.4768 58.2174 43.8195 65.0597 42.3378 72.5085C40.8562 79.9574 41.6166 87.6784 44.523 94.695C47.4294 101.712 52.3513 107.709 58.6661 111.928C64.9809 116.148 72.4052 118.4 80 118.4C90.1843 118.4 99.9515 114.354 107.153 107.153C114.354 99.9515 118.4 90.1843 118.4 80ZM131.2 38.4C131.2 36.5013 130.637 34.6452 129.582 33.0665C128.527 31.4878 127.028 30.2574 125.274 29.5308C123.52 28.8042 121.589 28.614 119.727 28.9845C117.865 29.3549 116.154 30.2692 114.812 31.6118C113.469 32.9544 112.555 34.6649 112.184 36.5271C111.814 38.3893 112.004 40.3196 112.731 42.0738C113.457 43.8279 114.688 45.3273 116.267 46.3821C117.845 47.437 119.701 48 121.6 48C124.146 48 126.588 46.9886 128.388 45.1882C130.189 43.3879 131.2 40.9461 131.2 38.4Z" fill="white"/>
</svg>
