<svg width="280" height="136" viewBox="0 0 280 136" fill="none" xmlns="http://www.w3.org/2000/svg">
<path fill-rule="evenodd" clip-rule="evenodd" d="M184.706 116.892C172.471 128.721 155.808 136 137.445 136C120.251 136 104.547 129.618 92.5732 119.094C82.8073 129.5 68.9287 136 53.5318 136C23.967 136 0 112.033 0 82.4683C0 52.9035 23.967 28.9365 53.5318 28.9365C62.3675 28.9365 70.7033 31.0772 78.0487 34.8681C89.6777 14.0651 111.919 0 137.445 0C163.731 0 186.534 14.9149 197.852 36.7436C205.966 31.7905 215.502 28.9365 225.704 28.9365C255.268 28.9365 279.236 52.9035 279.236 82.4683C279.236 112.033 255.268 136 225.704 136C209.248 136 194.526 128.575 184.706 116.892Z" fill="url(#paint0_linear_1177_607)"/>
<defs>
<linearGradient id="paint0_linear_1177_607" x1="137.448" y1="0" x2="137.448" y2="79.946" gradientUnits="userSpaceOnUse">
<stop stop-color="#979CCA"/>
<stop offset="1" stop-color="#010640" stop-opacity="0"/>
</linearGradient>
</defs>
</svg>
