<svg width="165" height="80" viewBox="0 0 165 80" fill="none" xmlns="http://www.w3.org/2000/svg">
<path fill-rule="evenodd" clip-rule="evenodd" d="M108.651 68.7607C101.454 75.7187 91.6527 79.9999 80.8515 79.9999C70.7368 79.9999 61.499 76.2456 54.4555 70.0546C48.7108 76.1761 40.5466 80.0001 31.4893 80.0001C14.0982 80.0001 0 65.9018 0 48.5108C0 31.1197 14.0982 17.0215 31.4893 17.0215C36.6872 17.0215 41.591 18.2809 45.9121 20.5112C52.7526 8.27384 65.8358 0 80.8515 0C96.3136 0 109.727 8.77315 116.384 21.6131C121.157 18.7 126.766 17.0215 132.767 17.0215C150.158 17.0215 164.256 31.1197 164.256 48.5108C164.256 65.9018 150.158 80.0001 132.767 80.0001C123.087 80.0001 114.427 75.6326 108.651 68.7607Z" fill="url(#paint0_linear_1177_611)"/>
<defs>
<linearGradient id="paint0_linear_1177_611" x1="80.8514" y1="0" x2="80.8514" y2="47.0271" gradientUnits="userSpaceOnUse">
<stop stop-color="#979CCA"/>
<stop offset="1" stop-color="#010640" stop-opacity="0"/>
</linearGradient>
</defs>
</svg>
