<svg width="36" height="33" viewBox="0 0 36 33" fill="none" xmlns="http://www.w3.org/2000/svg">
<path d="M23.9375 28.875C25.0766 28.875 26 29.7984 26 30.9375C26 32.0766 25.0766 33 23.9375 33H6.0625C4.92341 33 4 32.0766 4 30.9375C4 29.7984 4.92341 28.875 6.0625 28.875H23.9375ZM33.9375 14.4375C35.0766 14.4375 36 15.3609 36 16.5C36 17.6391 35.0766 18.5625 33.9375 18.5625H2.0625C0.923413 18.5625 0 17.6391 0 16.5C0 15.3609 0.923413 14.4375 2.0625 14.4375H33.9375ZM29.9375 0C31.0766 0 32 0.923413 32 2.0625C32 3.20159 31.0766 4.125 29.9375 4.125H12.0625C10.9234 4.125 10 3.20159 10 2.0625C10 0.923413 10.9234 0 12.0625 0H29.9375Z" fill="#010535"/>
</svg>
