<svg width="198" height="97" viewBox="0 0 198 97" fill="none" xmlns="http://www.w3.org/2000/svg">
<path fill-rule="evenodd" clip-rule="evenodd" d="M130.971 82.887C122.295 91.2745 110.48 96.4352 97.4598 96.4352C85.2676 96.4352 74.1324 91.9101 65.6419 84.4477C58.7171 91.8262 48.8761 96.4353 37.9585 96.4353C16.9946 96.4353 0 79.4407 0 58.4767C0 37.5128 16.9946 20.5182 37.9585 20.5182C44.2237 20.5182 50.1344 22.0361 55.3429 24.7241C63.5889 9.9732 79.3596 0 97.4598 0C116.098 0 132.267 10.5755 140.293 26.0533C146.046 22.5417 152.807 20.5183 160.041 20.5183C181.005 20.5183 197.999 37.5129 197.999 58.4769C197.999 79.4408 181.005 96.4354 160.041 96.4354C148.372 96.4354 137.934 91.1706 130.971 82.887Z" fill="url(#paint0_linear_1177_727)"/>
<defs>
<linearGradient id="paint0_linear_1177_727" x1="97.4607" y1="0" x2="97.4607" y2="56.6884" gradientUnits="userSpaceOnUse">
<stop stop-color="white"/>
<stop offset="1" stop-color="white" stop-opacity="0"/>
</linearGradient>
</defs>
</svg>
