<svg width="280" height="136" viewBox="0 0 280 136" fill="none" xmlns="http://www.w3.org/2000/svg">
<path fill-rule="evenodd" clip-rule="evenodd" d="M184.705 116.893C172.47 128.722 155.808 136 137.446 136C120.252 136 104.548 129.618 92.5737 119.093C82.8078 129.5 68.9289 136 53.5318 136C23.967 136 0 112.033 0 82.4683C0 52.9035 23.967 28.9365 53.5318 28.9365C62.3679 28.9365 70.7039 31.0773 78.0496 34.8686C89.6784 14.0653 111.92 0 137.446 0C163.732 0 186.534 14.9143 197.852 36.7423C205.966 31.79 215.501 28.9365 225.702 28.9365C255.267 28.9365 279.234 52.9035 279.234 82.4683C279.234 112.033 255.267 136 225.702 136C209.246 136 194.525 128.575 184.705 116.893Z" fill="url(#paint0_linear_275_32)"/>
<defs>
<linearGradient id="paint0_linear_275_32" x1="137.447" y1="0" x2="137.447" y2="79.946" gradientUnits="userSpaceOnUse">
<stop stop-color="#979CCA"/>
<stop offset="1" stop-color="#010640" stop-opacity="0"/>
</linearGradient>
</defs>
</svg>
