<svg width="165" height="80" viewBox="0 0 165 80" fill="none" xmlns="http://www.w3.org/2000/svg">
<path fill-rule="evenodd" clip-rule="evenodd" d="M108.65 68.7607C101.453 75.7187 91.6519 79.9999 80.8507 79.9999C70.7363 79.9999 61.4986 76.2458 54.4551 70.055C48.7105 76.1763 40.5464 80.0001 31.4893 80.0001C14.0982 80.0001 0 65.9018 0 48.5108C0 31.1197 14.0982 17.0215 31.4893 17.0215C36.687 17.0215 41.5905 18.2808 45.9115 20.5109C52.752 8.2737 65.8352 0 80.8507 0C96.3128 0 109.726 8.77313 116.384 21.6131C121.156 18.7 126.765 17.0215 132.766 17.0215C150.157 17.0215 164.255 31.1197 164.255 48.5108C164.255 65.9018 150.157 80.0001 132.766 80.0001C123.086 80.0001 114.427 75.6326 108.65 68.7607Z" fill="url(#paint0_linear_275_36)"/>
<defs>
<linearGradient id="paint0_linear_275_36" x1="80.851" y1="0" x2="80.851" y2="47.0271" gradientUnits="userSpaceOnUse">
<stop stop-color="#979CCA"/>
<stop offset="1" stop-color="#010640" stop-opacity="0"/>
</linearGradient>
</defs>
</svg>
