<svg width="198" height="97" viewBox="0 0 198 97" fill="none" xmlns="http://www.w3.org/2000/svg">
<path fill-rule="evenodd" clip-rule="evenodd" d="M130.972 82.8872C122.296 91.2746 110.481 96.4352 97.4611 96.4352C85.2686 96.4352 74.133 91.9099 65.6425 84.4471C58.7176 91.826 48.8764 96.4353 37.9585 96.4353C16.9946 96.4353 0 79.4407 0 58.4767C0 37.5128 16.9946 20.5182 37.9585 20.5182C44.2241 20.5182 50.1352 22.0363 55.3439 24.7247C63.5898 9.97344 79.3607 0 97.4611 0C116.1 0 132.268 10.5754 140.294 26.0531C146.047 22.5415 152.808 20.5182 160.041 20.5182C181.005 20.5182 198 37.5128 198 58.4767C198 79.4407 181.005 96.4353 160.041 96.4353C148.373 96.4353 137.935 91.1706 130.972 82.8872Z" fill="url(#paint0_linear_275_31)"/>
<defs>
<linearGradient id="paint0_linear_275_31" x1="97.4612" y1="0" x2="97.4612" y2="56.6883" gradientUnits="userSpaceOnUse">
<stop stop-color="#979CCA"/>
<stop offset="1" stop-color="#010640" stop-opacity="0"/>
</linearGradient>
</defs>
</svg>
