<svg width="552" height="99" viewBox="0 0 552 99" fill="none" xmlns="http://www.w3.org/2000/svg">
<g filter="url(#filter0_d_1177_698)">
<path fill-rule="evenodd" clip-rule="evenodd" d="M279.182 67.28V11.28H260.662L278.582 67.28H279.182ZM292.182 67.28H298.822L308.349 37.3365L317.382 67.28H337.622L355.542 11.28H337.622L327.309 43.5281L317.542 11.28H300.182L292.182 35.9041V67.28ZM418.182 11.28V67.28H403.703V11.28H418.182ZM443.383 67.28L429.182 50.2867V23.1973L440.503 36.7443V11.28H458.903V67.28H443.383ZM20 11.28H38V18.1768V25.84V38.96V46.2865V46.6232V53.52V67.28H20V11.28ZM47 53.52V38.9118C48.9896 38.7498 50.4963 38.1792 51.52 37.2C52.8 36.0267 53.44 34.4267 53.44 32.4C53.44 30.3733 52.8 28.7733 51.52 27.6C50.4963 26.6208 48.9896 26.0502 47 25.8882V11.28C52.2097 11.2844 56.703 12.1377 60.48 13.84C64.32 15.5467 67.28 18 69.36 21.2C71.44 24.3467 72.48 28.08 72.48 32.4C72.48 36.72 71.44 40.4533 69.36 43.6C67.28 46.7467 64.32 49.2 60.48 50.96C56.703 52.6623 52.2097 53.5156 47 53.52ZM86.6719 54.5784V11.28H105.552V66.8005L86.6719 54.5784ZM122.641 67.28V11.28H138.161L138.182 11.3058L138.182 67.28H122.641ZM149.182 51.5582L162.321 67.28H177.841V11.28H159.441V36.7443L149.182 24.4687V51.5582ZM223.978 68.56C219.444 68.56 215.258 67.8667 211.417 66.48C207.631 65.04 204.324 63.0133 201.497 60.4C198.724 57.7867 196.564 54.6933 195.018 51.12C193.471 47.5467 192.697 43.6 192.697 39.28C192.697 34.96 193.471 31.0133 195.018 27.44C196.564 23.8667 198.751 20.7733 201.577 18.16C204.404 15.5467 207.738 13.5467 211.577 12.16C215.471 10.72 219.738 10 224.378 10C229.924 10 234.857 10.9333 239.178 12.8C243.551 14.6667 247.151 17.3333 249.978 20.8L237.898 31.44C236.137 29.4133 234.217 27.8933 232.137 26.88C230.111 25.8133 227.844 25.28 225.337 25.28C223.258 25.28 221.364 25.6 219.658 26.24C218.004 26.88 216.591 27.8133 215.417 29.04C214.244 30.2667 213.337 31.7333 212.697 33.44C212.057 35.1467 211.738 37.0933 211.738 39.28C211.738 41.36 212.057 43.28 212.697 45.04C213.337 46.7467 214.244 48.2133 215.417 49.44C216.591 50.6667 217.977 51.6267 219.577 52.32C221.231 52.96 223.071 53.28 225.098 53.28C227.231 53.28 229.311 52.9333 231.337 52.24C231.549 52.1619 231.763 52.0783 231.978 51.9892V37.76H248.378V38.6041L224.721 68.5533C224.473 68.5578 224.225 68.56 223.978 68.56ZM385.926 67.28L367.734 55.5035V11.28H386.614V67.28H385.926ZM505.04 68.56C500.507 68.56 496.32 67.8667 492.48 66.48C488.693 65.04 485.387 63.0133 482.56 60.4C479.787 57.7867 477.627 54.6933 476.08 51.12C474.533 47.5467 473.76 43.6 473.76 39.28C473.76 34.96 474.533 31.0133 476.08 27.44C477.627 23.8667 479.813 20.7733 482.64 18.16C485.467 15.5467 488.8 13.5467 492.64 12.16C496.533 10.72 500.8 10 505.44 10C510.987 10 515.92 10.9333 520.24 12.8C524.613 14.6667 528.213 17.3333 531.04 20.8L518.96 31.44C517.2 29.4133 515.28 27.8933 513.2 26.88C511.173 25.8133 508.907 25.28 506.4 25.28C504.32 25.28 502.427 25.6 500.72 26.24C499.067 26.88 497.653 27.8133 496.48 29.04C495.307 30.2667 494.4 31.7333 493.76 33.44C493.12 35.1467 492.8 37.0933 492.8 39.28C492.8 41.36 493.12 43.28 493.76 45.04C494.4 46.7467 495.307 48.2133 496.48 49.44C497.653 50.6667 499.04 51.6267 500.64 52.32C502.293 52.96 504.133 53.28 506.16 53.28C508.293 53.28 510.373 52.9333 512.4 52.24C512.612 52.1619 512.825 52.0783 513.04 51.9892V37.76H529.44V38.727L505.883 68.5514C505.601 68.5571 505.32 68.56 505.04 68.56Z" fill="white"/>
</g>
<defs>
<filter id="filter0_d_1177_698" x="0" y="0" width="551.039" height="98.5596" filterUnits="userSpaceOnUse" color-interpolation-filters="sRGB">
<feFlood flood-opacity="0" result="BackgroundImageFix"/>
<feColorMatrix in="SourceAlpha" type="matrix" values="0 0 0 0 0 0 0 0 0 0 0 0 0 0 0 0 0 0 127 0" result="hardAlpha"/>
<feOffset dy="10"/>
<feGaussianBlur stdDeviation="10"/>
<feComposite in2="hardAlpha" operator="out"/>
<feColorMatrix type="matrix" values="0 0 0 0 0 0 0 0 0 0 0 0 0 0 0 0 0 0 0.4 0"/>
<feBlend mode="normal" in2="BackgroundImageFix" result="effect1_dropShadow_1177_698"/>
<feBlend mode="normal" in="SourceGraphic" in2="effect1_dropShadow_1177_698" result="shape"/>
</filter>
</defs>
</svg>
