<svg width="300" height="72" viewBox="0 0 300 72" fill="none" xmlns="http://www.w3.org/2000/svg">
<path d="M115.462 24.8926C113.725 26.3161 111.984 27.7349 110.214 29.1188C108.194 30.6988 106.152 32.2502 104.148 33.8521C102.667 35.0366 100.663 36.2608 99.4332 37.7323C99.0503 38.1903 100.574 37.3793 101.135 37.1733C102.532 36.6596 103.925 36.136 105.319 35.6144C106.079 35.3302 107.9 34.3409 108.713 34.9942C109.633 35.7342 112.656 34.3558 113.401 33.9841C118.509 31.4386 120.18 25.2065 118.127 20.0605C116.676 16.4229 113.703 15.8353 109.997 15.6513C103.365 15.3221 96.4825 16.1281 89.9222 17.0168C86.2375 17.5159 82.0818 18.044 78.5943 19.4914C75.3959 20.8188 76.6299 22.3478 76.6715 24.9858" stroke="white" stroke-width="1.5" stroke-linecap="round"/>
<path d="M106.554 36.4165C112.371 34.8216 118.307 33.657 124.066 31.8516C131.477 29.5288 137.792 26.017 143.893 21.2699C146.465 19.2684 148.967 17.1756 151.488 15.1104C152.365 14.3915 153.474 13.6979 154.209 12.8196C155.244 11.5841 154.108 11.0924 152.99 11.4811C145.72 14.0076 139.369 18.652 133.486 23.4897C126.548 29.1959 120.402 35.7683 113.632 41.6596C109.823 44.975 105.821 48.0888 101.914 51.2892C99.4226 53.3299 97.0054 55.6163 94.3016 57.371C92.5214 58.5263 92.0499 58.351 90.7858 56.6833C90.3823 56.151 89.9014 55.5778 90.4165 54.9559C91.2616 53.9358 92.6539 53.0074 93.7924 52.3752C98.7671 49.6129 104.966 48.8522 110.378 47.3547C113.854 46.393 117.252 45.1926 120.653 43.9975C122.374 43.3926 122.668 43.2929 124.168 42.7325C124.486 42.6137 125.298 42.1383 125.144 42.4407C124.819 43.0765 120.343 45.1599 123.355 43.9366C128.731 41.7534 134.718 39.9158 139.57 36.6982C140.205 36.2768 141.821 35.4767 141.439 34.4749C140.786 32.7632 136.586 36.5019 136.15 36.9161C135.195 37.822 133.305 39.6911 133.614 41.254C133.762 42.0043 136.696 42.015 137.036 42.0338C140.051 42.2005 143.047 41.7949 145.949 40.9758C147.791 40.4558 151.583 39.6661 152.794 37.937C153.481 36.9566 150.369 38.3888 150.328 38.4188C147.735 40.3319 154.436 39.9631 154.859 39.9513C161.082 39.7778 168.589 38.9942 173.719 35.0977C175.545 33.7111 173.11 33.984 171.962 34.3228C169.684 34.9949 167.509 36.1818 165.521 37.461C164.213 38.3025 162.475 39.4095 161.974 40.9968C161.33 43.0393 170.832 42.289 171.624 42.2267C175.65 41.9101 179.475 40.7637 183.15 39.1208C185.46 38.0881 188.25 36.8269 189.771 34.6818C190.502 33.6497 189.674 33.4958 188.689 33.7374C185.82 34.4415 183.193 36.3367 180.802 37.9997C179.59 38.8424 177.028 40.5101 179.891 40.8678C182.834 41.2355 185.881 41.0949 188.832 40.9707C193.288 40.7831 197.684 40.3785 201.73 38.3561C203.898 37.2722 205.927 35.8007 207.89 34.3869C208.385 34.0303 211.529 31.6795 208.805 32.745C207.121 33.4041 206.215 33.9752 204.613 35.1178C199.277 38.9254 194.445 43.5612 189.969 48.328" stroke="white" stroke-width="1.5" stroke-linecap="round"/>
<path d="M121.242 55.8216C140.683 53.2527 160.137 50.787 179.565 48.124" stroke="white" stroke-width="1.5" stroke-linecap="round"/>
<path d="M148.837 27.8006C166.011 27.7859 183.252 25.7581 200.363 24.5876" stroke="white" stroke-width="1.5" stroke-linecap="round"/>
</svg>
